/* XPM */
static char * infobiotics_workbench_xpm[] = {
"32 32 9 1",
" 	c None",
".	c #5D49C8",
"+	c #5D4AC9",
"@	c #5C4AC8",
"#	c #5D49C9",
"$	c #5C49C8",
"%	c #5C4AC9",
"&	c #5C49C9",
"*	c #5D4AC8",
"                                ",
"                                ",
"                                ",
"                                ",
"                                ",
"                                ",
"                                ",
"                                ",
"    .+++   +@++    +   +#   $+  ",
"    #++%  ++++++  $+@  &**  @+  ",
"    &+.+  %++++.+  +&  @+*  +%  ",
"     #+   ++# *$+  $+  $@$  +*  ",
"     @$   &+  @.+  +.  @+$ %*+  ",
"     +%   ++  +*+  .+ **+& +$   ",
"     +%   $+# ++   +* ++*$ +*   ",
"     +%   ++%+++   +$ ++*+ &+   ",
"     $%   %++++#   +$ ++ +$++   ",
"     @$   %+*++@*   $+%+ *+.#   ",
"     +%   ++   %+   ++++ #%++   ",
"     +%   ++   %+   ++%  &%++   ",
"     +&   ##   ++   +++  +%+    ",
"    &@$%  $+@%+*+   $*#  +*&    ",
"    &+.+  ++++&%%   $@+  @&+    ",
"    &++%  ++@++$    +$*   ++    ",
"                                ",
"                                ",
"                                ",
"                                ",
"                                ",
"                                ",
"                                ",
"                                "};
